<?xml version="1.0" encoding="utf-8"?>
<!-- Generator: Adobe Illustrator 17.1.0, SVG Export Plug-In . SVG Version: 6.00 Build 0)  -->
<!DOCTYPE svg PUBLIC "-//W3C//DTD SVG 1.1//EN" "http://www.w3.org/Graphics/SVG/1.1/DTD/svg11.dtd">
<svg version="1.1" id="Laag_1" xmlns="http://www.w3.org/2000/svg" xmlns:xlink="http://www.w3.org/1999/xlink" x="0px" y="0px"
	 viewBox="0 0 129.4 127.6" enable-background="new 0 0 129.4 127.6" xml:space="preserve">
<path fill="#5B7B7B" stroke="#5B7B7B" stroke-miterlimit="10" d="M65.8,65.3"/>
<g>
	<circle fill="#333333" cx="65.8" cy="65.3" r="55.7"/>
	<g>
		<path fill="#FFFFFF" d="M83.7,88.4c3-2.3,6.1-4.6,9.3-6.7c1-0.6,1.8-1.5,2.4-2.5c1.8-3.5,4.7-6,7.2-8.8c0.6-0.6,1.3-1.8,1.6-2.7
			c1.2-3.7,2.8-7.2,4.6-10.6c0.4-0.7,1.1-1.5,0.4-2.2c-0.6-0.6-1.6-0.3-2.5,0c-1.3,0.4-2.1,1.5-3.3,2.5c-0.2-2.8-0.3-5.2-0.4-7.7
			c-0.1-1.6-0.6-1.9-2-1.3c-1.6,0.7-2.4,2-2.5,3.7c-0.1,0.9,0,1.8,0,3.1c-0.6-1.2-0.5-2-0.7-2.9c-0.1-0.8,0-2-0.9-2.2
			c-0.9-0.2-1.8,0.6-2.5,1.4c-0.4,0.6-0.6,1.3-0.6,2c0,0.5,0,0.9-0.4,1.3c-1.7,1.5-1.7,3.4-1.6,5.4c0.1,2.1-0.4,4.1-1.6,5.7
			c-1,1.3-2.1,2.6-3.2,3.8c-2.8,3-5.8,5.6-9.7,7.2c-4.4,1.8-7.6,4.8-10.2,9.2c-0.3,0.4-0.5,0.8-0.5,1.4c-0.1,1.4-0.1,0.8,0,2.3
			c0.1,4.3-0.2,10.7-0.2,10.9c-0.1-0.3,0.2-12.1-0.3-13.4c-0.1-0.3-0.2-0.6-0.4-0.9c-0.7-1.4-1.7-2.5-2.9-3.5
			c-2.4-1.8-4.9-3.2-7.6-4.5c-3.2-1.5-5.7-4.1-7.3-7.3c-1.9-3.9-3.5-8-6.2-11.4c-1-1.2-2.2-2.2-3.8-1.8c-1.4,0.3-1.9-0.4-2.7-2.1
			c-0.7-1.4-1.9-2.3-3.4-2.6c-1.8-0.3-3.5-0.7-5.1-1.8c-0.8-0.5-1.9-0.2-2.6,0.5c-0.7,0.8,0.1,1.5,0.5,2.2c0.5,0.9,1.3,1.6,1.3,2.8
			c-0.5-0.1-0.7-0.2-1-0.2c-1-0.2-2.2-0.7-2.9,0.3c-0.6,0.8,0.4,1.7,0.9,2.4c1.9,2.7,3.5,5.6,4.7,8.7c0.4,1.1,1,2.1,1.8,2.9
			c2.8,2.9,5.8,5.6,7.8,9.1c0.4,0.8,1.1,1.4,1.8,1.8c4.2,2.3,7.7,5.5,11.5,8.4c3.5,2.6,5.1,6.2,4.4,10.6c-0.9,5.4-1.8,10.8-2.8,16.2
			c4.3,0.8,8.8,1.3,13.4,1.3c0.6,0-0.6,0,0,0c-0.1-5.8,0.9-11.7,0.9-17.5c0.1,0-0.1,0,0,0c0,5.8,0.3,11.1,0.9,17.5
			c5.4-0.2,11.2-1,16.2-2.4c-1.4-5.3-2.7-10.6-3.8-16C78.6,95.1,79.9,91.3,83.7,88.4z"/>
	</g>
	<g>
		<path fill="#FFFFFF" d="M65.9,48.4c0,0-3.1-6.9-9.5-3.8c-4.2,2-5,12.2,9.5,19.7c14.5-7.5,13.6-17.7,9.5-19.7
			C69,41.5,65.9,48.4,65.9,48.4z"/>
	</g>
</g>
</svg>
