<?xml version="1.0" encoding="utf-8"?>
<!-- Generator: Adobe Illustrator 17.1.0, SVG Export Plug-In . SVG Version: 6.00 Build 0)  -->
<!DOCTYPE svg PUBLIC "-//W3C//DTD SVG 1.1//EN" "http://www.w3.org/Graphics/SVG/1.1/DTD/svg11.dtd">
<svg version="1.1" id="Laag_1" xmlns="http://www.w3.org/2000/svg" xmlns:xlink="http://www.w3.org/1999/xlink" x="0px" y="0px"
	 viewBox="0 0 129.4 127.6" enable-background="new 0 0 129.4 127.6" xml:space="preserve">
<path fill="#5B7B7B" stroke="#5B7B7B" stroke-miterlimit="10" d="M65.8,65.3"/>
<g>
	<g>
		<circle fill="#333333" cx="64.7" cy="63.8" r="56"/>
	</g>
	<g>
		<path fill="#FFFFFF" d="M27.7,59.2c0,0,1.9-8.4,9.6-13.8l-2.5-18.3c0,0,11.9-2.2,18.7,10.3c0,0,28.1-7.4,43.1,15.5
			c13.6,20.7-7.5,37.9-7.5,37.9L89,102.6c0,0-14.8,2.9-15.7-4.2c0,0-12.6,3.2-21.8-0.9c0,0,4.4,7.6-13,4.8l0-10
			c0,0-8.1-7.8-9.9-13.1l-5.2-0.4l-3.2-20L27.7,59.2z"/>
		<path fill="#FFFFFF" d="M99.7,63.1c-0.8,0-1.4-0.6-1.5-1.4c-0.1-0.8,0.5-1.6,1.4-1.7c0.9-0.1,2.7-0.4,4.4-1.2
			c-2.7-1.8-4.4-4.9-4.6-8.6c-0.2-4.5,1.7-6.4,3.7-6.7c2.6-0.4,6,1.8,7.7,7.9c0.6,2.2,0.5,4.2-0.4,5.9c1.3-0.1,2.6-0.6,3.9-1.3
			c0.7-0.4,1.7-0.2,2.1,0.6c0.4,0.7,0.2,1.7-0.6,2.1c-2.7,1.5-5.5,2.1-8.1,1.7c-3.2,2.3-7.6,2.8-7.8,2.8
			C99.9,63.1,99.8,63.1,99.7,63.1z M103.7,46.6c0,0-0.1,0-0.1,0c-0.6,0.1-1.2,1.4-1.1,3.5c0.2,2.9,1.5,5.3,3.7,6.4
			c0.3,0.1,0.5,0.3,0.8,0.4c0.2-0.2,0.3-0.4,0.5-0.6c0.8-1.1,0.9-2.5,0.4-4.1C106.7,48.1,104.7,46.6,103.7,46.6z"/>
		<g>
			<path fill="#333333" d="M54.2,46.7c0,0,10.1-3.7,21.8,0"/>
			<path fill="#333333" d="M76,48.2c-0.2,0-0.3,0-0.5-0.1c-11-3.5-20.7-0.1-20.8,0c-0.8,0.3-1.7-0.1-2-0.9c-0.3-0.8,0.1-1.7,0.9-2
				c0.4-0.2,10.7-3.8,22.8,0c0.8,0.3,1.2,1.1,1,1.9C77.2,47.8,76.6,48.2,76,48.2z"/>
		</g>
		<circle fill="#333333" cx="42.5" cy="58.4" r="2.9"/>
	</g>
</g>
</svg>
