<?xml version="1.0" encoding="utf-8"?>
<!-- Generator: Adobe Illustrator 17.1.0, SVG Export Plug-In . SVG Version: 6.00 Build 0)  -->
<!DOCTYPE svg PUBLIC "-//W3C//DTD SVG 1.1//EN" "http://www.w3.org/Graphics/SVG/1.1/DTD/svg11.dtd">
<svg version="1.1" id="Laag_1" xmlns="http://www.w3.org/2000/svg" xmlns:xlink="http://www.w3.org/1999/xlink" x="0px" y="0px"
	 viewBox="0 0 129.4 127.6" enable-background="new 0 0 129.4 127.6" xml:space="preserve">
<path fill="#5B7B7B" stroke="#5B7B7B" stroke-miterlimit="10" d="M65.8,65.3"/>
<g>
	<path fill="#5B7B7B" stroke="#5B7B7B" stroke-miterlimit="10" d="M64.8,62.8"/>
	<g>
		<circle fill="#333333" cx="64.7" cy="63.8" r="56"/>
	</g>
	<g>
		<path fill="#FFFFFF" d="M110.7,79.4c-1.5-0.5-3-1-4.5-1.5c-1.4-0.5-2.9-1-4.3-1.5c-1.1-0.4-2.1-0.9-3.2-1.3c-1.5-0.6-3-1.3-4.5-2
			c-0.2-0.1-0.4-0.2-0.5-0.2c-1.1-0.5-2.1-0.9-3.2-1.4c-0.9-0.4-1.8-0.8-2.6-1.3c-1.1-0.7-2.2-1.2-3.5-1.5c-0.4-0.1-0.9-0.3-1.3-0.5
			c-0.8-0.4-1.7-0.8-2.6-1c-0.6-0.1-1.2-0.2-1.9-0.1c-0.6,0.2-1.3,0.3-1.9,0.5c-0.6,0.2-1.1,0.4-1.6,0.5c-0.9,0.1-1.7,0.2-2.6,0.2
			c-0.4,0-0.9,0.1-1.3,0.1c-0.8,0.1-1.6,0.3-2.3,0.5c-0.5,0.1-0.9,0.2-1.4,0.5c-0.6,0.3-1.2,0.5-1.8,0.6c-0.2,0-0.4,0.1-0.6,0.2
			c-0.7,0.3-1.5,0.6-2.2,0.8c-0.8,0.2-1.7,0.4-2.6,0.5c-0.4,0.1-0.8,0-1.3,0c-0.7-0.1-1.3-0.3-2-0.5c-0.5-0.1-0.9-0.4-1.3-0.7
			c-0.9-0.9-1.9-1.7-3.1-2.3c-0.2-0.1-0.5-0.3-0.6-0.5c-0.8-1-1.7-2-2.8-2.8c-0.6-0.5-1.2-0.9-2-1c-0.5-0.1-1-0.1-1.5,0.1
			c-0.2,0.1-0.4,0.1-0.6,0c-0.2-0.1-0.4-0.1-0.6-0.1c-0.3,0-0.5,0.2-0.4,0.5c0,0.1,0.1,0.3,0.2,0.4c0.6,0.8,1.3,1.5,2.1,2.1
			c0.2,0.2,0.5,0.4,0.7,0.6c0.4,0.4,0.7,0.8,1.1,1.2c0.1,0.1,0.2,0.3,0.3,0.4c0,0,0,0.1-0.1,0.1c-0.1-0.1-0.3-0.1-0.4-0.2
			c-1.2-0.6-2.4-1.2-3.6-1.8c-0.4-0.2-0.8-0.4-1.3-0.6c-0.6-0.3-1.2-0.6-1.7-0.9c-0.7-0.4-1.4-0.5-2.2-0.7c-0.4-0.1-0.9-0.2-1.3-0.3
			c-0.6-0.1-1.1,0.1-1.7,0.3c-0.3,0.1-0.5,0.1-0.8,0c-0.1,0-0.2-0.1-0.3-0.1c-1-0.3-2-0.4-2.9,0c-0.9,0.3-1.6,0.9-1.8,1.8
			c0,0.1,0,0.1-0.1,0.2c-0.2,0.4-0.2,0.4,0.1,0.7c0.6,0.3,1.1,0.6,1.7,0.9c0.8,0.3,1.7,0.6,2.5,0.9c0.8,0.4,1.6,0.7,2.3,1.2
			c0.2,0.2,0.5,0.3,0.7,0.5c0.2,0.2,0.1,0.4-0.1,0.4c-0.1,0-0.2,0-0.3,0C36.3,71,35.6,71,34.9,71c-0.5,0-1,0-1.5,0.1
			c-1,0.1-1.8,0.6-2.6,1.2c-0.4,0.3-0.8,0.6-0.9,1.1c-0.2,0.5,0.1,1,0.6,1.2c0.9,0.2,1.7,0.4,2.6,0.4c0.4,0,0.9,0,1.3,0.1
			c0.6,0.1,1.1,0.3,1.7,0.3c0.8,0.1,1.5,0.3,2.2,0.6c1.2,0.6,2.5,1.1,3.8,1.6c0.5,0.2,1.1,0.5,1.6,0.7c0.5,0.2,1.1,0.4,1.7,0.5
			c0.9,0.1,1.8,0.3,2.7,0.6c0.8,0.3,1.6,0.5,2.3,0.7c1.5,0.4,3.1,0.7,4.6,1.2c0.6,0.2,1.1,0.4,1.6,0.8c0.6,0.4,1.3,0.9,1.8,1.4
			c0.7,0.6,1.6,0.9,2.5,0.9c1.4,0,2.8-0.3,4.2-0.4c0.8-0.1,1.6-0.2,2.4-0.2c0.5,0,0.9-0.1,1.4-0.1c0.6-0.1,1.2-0.1,1.8-0.2
			c1.3,0,2.5-0.1,3.8-0.1c0.1,0,0.1,0,0.2,0c0.8-0.1,1.6-0.1,2.4-0.2c0.9,0,1.7,0,2.6,0c1.2,0,2.4,0.2,3.5,0.5
			c1.5,0.4,3,0.8,4.5,1.2c1,0.3,2.1,0.6,3.1,0.9c1.9,0.7,3.6,1.7,5.3,2.8c0.9,0.5,1.7,1.1,2.6,1.7c0.8,0.5,1.6,0.9,2.4,1.4
			c1.3,0.7,2.6,1.5,3.9,2.2c3.1-4.2,5.6-8.8,7.4-13.8C111.9,79.8,111.3,79.6,110.7,79.4z"/>
		<g>
			<path fill="#FFFFFF" d="M51.4,50.1v-0.3c0-0.3,0.3-0.6,0.6-0.6h1.3c-0.1-0.5-0.1-1-0.1-1.6c0-0.2,0-0.5,0-0.7H52
				c-0.3,0-0.6-0.3-0.6-0.6v-0.3c0-0.3,0.3-0.6,0.6-0.6h1.4c1-5.4,5.7-9.4,11.4-9.4c3.3,0,5.6,1.1,7.8,3c0.3,0.3,0.3,0.6,0,0.9
				l-1.4,1.4c-0.3,0.3-0.6,0.3-1,0c-1.5-1.4-3.5-2.1-5.5-2.1c-3.8,0-6.9,2.7-7.8,6.2h8.3c0.4,0,0.6,0.3,0.6,0.6v0.4
				c0,0.3-0.3,0.6-0.6,0.6h-8.5c0,0.2,0,0.4,0,0.6c0,0.6,0,1.1,0.2,1.7H64c0.4,0,0.6,0.3,0.6,0.6v0.4c0,0.3-0.3,0.6-0.6,0.6h-6.6
				c1.2,3,4,5.1,7.5,5.1c2.3,0,4-0.9,5.5-2.1c0.3-0.2,0.6-0.2,0.8,0l1.5,1.5c0.3,0.2,0.2,0.6,0,0.9c-2.2,2.1-5,3.1-7.8,3.1
				c-5.4,0-9.8-3.5-11.2-8.4H52C51.6,50.8,51.4,50.5,51.4,50.1z"/>
		</g>
	</g>
</g>
</svg>
